<svg id="svg" version="1.1" xmlns="http://www.w3.org/2000/svg" xmlns:xlink="http://www.w3.org/1999/xlink" width="400" height="400" viewBox="0, 0, 400,400"><g id="svgg"><path id="path0" d="M94.000 31.200 L 94.000 37.200 200.000 37.200 L 306.000 37.200 306.000 31.200 L 306.000 25.200 200.000 25.200 L 94.000 25.200 94.000 31.200 M93.910 56.300 L 93.800 62.600 90.500 62.716 L 87.200 62.832 87.200 68.800 L 87.200 74.768 90.500 74.884 L 93.800 75.000 93.901 212.500 L 94.001 350.000 100.001 350.000 L 106.000 350.000 106.000 327.526 C 106.000 297.024,103.946 300.000,125.000 300.000 C 146.036 300.000,144.000 297.043,144.000 327.596 L 144.000 350.000 150.000 350.000 L 156.000 350.000 156.000 327.526 C 156.000 302.280,155.934 302.868,158.991 300.900 L 160.389 300.000 200.000 300.000 L 239.611 300.000 241.002 300.900 C 244.051 302.873,244.000 302.419,244.000 327.596 L 244.000 350.000 250.000 350.000 L 256.000 350.000 256.000 327.526 C 256.000 297.024,253.946 300.000,275.000 300.000 C 296.036 300.000,294.000 297.043,294.000 327.596 L 294.000 350.000 300.000 350.000 L 306.000 350.000 306.000 325.016 L 306.000 300.032 309.300 299.916 L 312.600 299.800 312.710 293.716 L 312.821 287.633 309.510 287.516 L 306.200 287.400 306.099 168.700 L 305.999 50.000 300.009 50.000 L 294.020 50.000 293.910 56.300 L 293.800 62.600 287.600 62.600 L 281.400 62.600 281.200 56.400 L 281.000 50.200 275.000 50.200 L 269.000 50.200 268.800 56.400 L 268.600 62.600 262.400 62.600 L 256.200 62.600 256.090 56.300 L 255.980 50.000 250.000 50.000 L 244.020 50.000 243.910 56.300 L 243.800 62.600 237.600 62.600 L 231.400 62.600 231.200 56.400 L 231.000 50.200 225.000 50.200 L 219.000 50.200 218.800 56.400 L 218.600 62.600 212.400 62.600 L 206.200 62.600 206.090 56.300 L 205.980 50.000 200.000 50.000 L 194.020 50.000 193.910 56.300 L 193.800 62.600 187.600 62.600 L 181.400 62.600 181.200 56.400 L 181.000 50.200 175.000 50.200 L 169.000 50.200 168.800 56.400 L 168.600 62.600 162.400 62.600 L 156.200 62.600 156.090 56.300 L 155.980 50.000 150.000 50.000 L 144.020 50.000 143.910 56.300 L 143.800 62.600 137.600 62.600 L 131.400 62.600 131.200 56.400 L 131.000 50.200 125.000 50.200 L 119.000 50.200 118.800 56.400 L 118.600 62.600 112.400 62.600 L 106.200 62.600 106.090 56.300 L 105.980 50.000 100.000 50.000 L 94.020 50.000 93.910 56.300 M140.105 75.300 C 144.200 77.589,144.000 76.006,144.000 106.135 C 144.000 136.229,144.177 134.824,140.105 137.100 C 138.897 137.775,111.177 137.821,109.874 137.150 C 105.873 135.090,106.000 136.102,106.000 106.200 C 106.000 76.312,105.857 77.502,109.703 75.375 C 111.001 74.657,138.832 74.588,140.105 75.300 M190.105 75.300 C 194.200 77.589,194.000 76.006,194.000 106.135 C 194.000 136.229,194.177 134.824,190.105 137.100 C 188.897 137.775,161.177 137.821,159.874 137.150 C 155.873 135.090,156.000 136.102,156.000 106.200 C 156.000 76.312,155.857 77.502,159.703 75.375 C 161.001 74.657,188.832 74.588,190.105 75.300 M240.105 75.300 C 244.200 77.589,244.000 76.006,244.000 106.135 C 244.000 136.229,244.177 134.824,240.105 137.100 C 238.897 137.775,211.177 137.821,209.874 137.150 C 205.873 135.090,206.000 136.102,206.000 106.200 C 206.000 76.312,205.857 77.502,209.703 75.375 C 211.001 74.657,238.832 74.588,240.105 75.300 M290.105 75.300 C 294.200 77.589,294.000 76.006,294.000 106.135 C 294.000 136.229,294.177 134.824,290.105 137.100 C 288.897 137.775,261.177 137.821,259.874 137.150 C 255.873 135.090,256.000 136.102,256.000 106.200 C 256.000 76.312,255.857 77.502,259.703 75.375 C 261.001 74.657,288.832 74.588,290.105 75.300 M141.002 150.900 C 144.095 152.901,144.000 151.935,144.000 181.460 L 144.000 207.730 143.006 209.426 C 141.083 212.707,140.588 212.800,125.000 212.800 C 109.412 212.800,108.917 212.707,106.994 209.426 L 106.000 207.730 106.000 181.391 C 106.000 151.897,105.901 152.937,108.897 150.925 C 110.969 149.533,138.857 149.512,141.002 150.900 M191.002 150.900 C 194.095 152.901,194.000 151.935,194.000 181.460 L 194.000 207.730 193.006 209.426 C 191.083 212.707,190.588 212.800,175.000 212.800 C 159.412 212.800,158.917 212.707,156.994 209.426 L 156.000 207.730 156.000 181.391 C 156.000 151.897,155.901 152.937,158.897 150.925 C 160.969 149.533,188.857 149.512,191.002 150.900 M241.002 150.900 C 244.095 152.901,244.000 151.935,244.000 181.460 L 244.000 207.730 243.006 209.426 C 241.083 212.707,240.588 212.800,225.000 212.800 C 209.412 212.800,208.917 212.707,206.994 209.426 L 206.000 207.730 206.000 181.391 C 206.000 151.897,205.901 152.937,208.897 150.925 C 210.969 149.533,238.857 149.512,241.002 150.900 M291.002 150.900 C 294.095 152.901,294.000 151.935,294.000 181.460 L 294.000 207.730 293.006 209.426 C 291.083 212.707,290.588 212.800,275.000 212.800 C 259.412 212.800,258.917 212.707,256.994 209.426 L 256.000 207.730 256.000 181.391 C 256.000 151.897,255.901 152.937,258.897 150.925 C 260.969 149.533,288.857 149.512,291.002 150.900 M140.059 225.367 C 144.115 227.061,144.000 226.166,144.000 256.131 C 144.000 286.230,144.177 284.824,140.105 287.100 C 138.897 287.775,111.177 287.821,109.874 287.150 C 105.873 285.090,106.000 286.102,106.000 256.200 C 106.000 226.179,105.877 227.141,109.936 225.338 C 111.615 224.591,138.265 224.617,140.059 225.367 M190.059 225.367 C 194.115 227.061,194.000 226.166,194.000 256.131 C 194.000 286.230,194.177 284.824,190.105 287.100 C 188.897 287.775,161.177 287.821,159.874 287.150 C 155.873 285.090,156.000 286.102,156.000 256.200 C 156.000 226.179,155.877 227.141,159.936 225.338 C 161.615 224.591,188.265 224.617,190.059 225.367 M240.059 225.367 C 244.115 227.061,244.000 226.166,244.000 256.131 C 244.000 286.230,244.177 284.824,240.105 287.100 C 238.897 287.775,211.177 287.821,209.874 287.150 C 205.873 285.090,206.000 286.102,206.000 256.200 C 206.000 226.179,205.877 227.141,209.936 225.338 C 211.615 224.591,238.265 224.617,240.059 225.367 M290.059 225.367 C 294.115 227.061,294.000 226.166,294.000 256.131 C 294.000 286.230,294.177 284.824,290.105 287.100 C 288.897 287.775,261.177 287.821,259.874 287.150 C 255.873 285.090,256.000 286.102,256.000 256.200 C 256.000 226.179,255.877 227.141,259.936 225.338 C 261.615 224.591,288.265 224.617,290.059 225.367 " stroke="none" fill="#fb6d06" fill-rule="evenodd"></path><path id="path1" d="M118.800 93.800 L 118.800 100.000 125.000 100.000 L 131.200 100.000 131.200 93.800 L 131.200 87.600 125.000 87.600 L 118.800 87.600 118.800 93.800 M168.800 93.800 L 168.800 100.000 175.000 100.000 L 181.200 100.000 181.200 93.800 L 181.200 87.600 175.000 87.600 L 168.800 87.600 168.800 93.800 M218.800 93.800 L 218.800 100.000 225.000 100.000 L 231.200 100.000 231.200 93.800 L 231.200 87.600 225.000 87.600 L 218.800 87.600 218.800 93.800 M268.800 93.800 L 268.800 100.000 275.000 100.000 L 281.200 100.000 281.200 93.800 L 281.200 87.600 275.000 87.600 L 268.800 87.600 268.800 93.800 M119.077 112.656 C 118.925 112.809,118.800 115.603,118.800 118.867 L 118.800 124.800 125.010 124.800 L 131.221 124.800 131.110 118.700 L 131.000 112.600 125.177 112.490 C 121.974 112.429,119.229 112.504,119.077 112.656 M169.077 112.656 C 168.925 112.809,168.800 115.603,168.800 118.867 L 168.800 124.800 175.010 124.800 L 181.221 124.800 181.110 118.700 L 181.000 112.600 175.177 112.490 C 171.974 112.429,169.229 112.504,169.077 112.656 M219.077 112.656 C 218.925 112.809,218.800 115.603,218.800 118.867 L 218.800 124.800 225.010 124.800 L 231.221 124.800 231.110 118.700 L 231.000 112.600 225.177 112.490 C 221.974 112.429,219.229 112.504,219.077 112.656 M269.077 112.656 C 268.925 112.809,268.800 115.603,268.800 118.867 L 268.800 124.800 275.010 124.800 L 281.221 124.800 281.110 118.700 L 281.000 112.600 275.177 112.490 C 271.974 112.429,269.229 112.504,269.077 112.656 M119.077 162.656 C 118.925 162.809,118.800 165.603,118.800 168.867 L 118.800 174.800 125.010 174.800 L 131.221 174.800 131.110 168.700 L 131.000 162.600 125.177 162.490 C 121.974 162.429,119.229 162.504,119.077 162.656 M169.077 162.656 C 168.925 162.809,168.800 165.603,168.800 168.867 L 168.800 174.800 175.010 174.800 L 181.221 174.800 181.110 168.700 L 181.000 162.600 175.177 162.490 C 171.974 162.429,169.229 162.504,169.077 162.656 M219.077 162.656 C 218.925 162.809,218.800 165.603,218.800 168.867 L 218.800 174.800 225.010 174.800 L 231.221 174.800 231.110 168.700 L 231.000 162.600 225.177 162.490 C 221.974 162.429,219.229 162.504,219.077 162.656 M269.077 162.656 C 268.925 162.809,268.800 165.603,268.800 168.867 L 268.800 174.800 275.010 174.800 L 281.221 174.800 281.110 168.700 L 281.000 162.600 275.177 162.490 C 271.974 162.429,269.229 162.504,269.077 162.656 M118.800 193.800 L 118.800 200.000 125.000 200.000 L 131.200 200.000 131.200 193.800 L 131.200 187.600 125.000 187.600 L 118.800 187.600 118.800 193.800 M168.800 193.800 L 168.800 200.000 175.000 200.000 L 181.200 200.000 181.200 193.800 L 181.200 187.600 175.000 187.600 L 168.800 187.600 168.800 193.800 M218.800 193.800 L 218.800 200.000 225.000 200.000 L 231.200 200.000 231.200 193.800 L 231.200 187.600 225.000 187.600 L 218.800 187.600 218.800 193.800 M268.800 193.800 L 268.800 200.000 275.000 200.000 L 281.200 200.000 281.200 193.800 L 281.200 187.600 275.000 187.600 L 268.800 187.600 268.800 193.800 M118.800 243.800 L 118.800 250.000 125.000 250.000 L 131.200 250.000 131.200 243.800 L 131.200 237.600 125.000 237.600 L 118.800 237.600 118.800 243.800 M168.800 243.800 L 168.800 250.000 175.000 250.000 L 181.200 250.000 181.200 243.800 L 181.200 237.600 175.000 237.600 L 168.800 237.600 168.800 243.800 M218.800 243.800 L 218.800 250.000 225.000 250.000 L 231.200 250.000 231.200 243.800 L 231.200 237.600 225.000 237.600 L 218.800 237.600 218.800 243.800 M268.800 243.800 L 268.800 250.000 275.000 250.000 L 281.200 250.000 281.200 243.800 L 281.200 237.600 275.000 237.600 L 268.800 237.600 268.800 243.800 M119.077 262.656 C 118.925 262.809,118.800 265.603,118.800 268.867 L 118.800 274.800 125.010 274.800 L 131.221 274.800 131.110 268.700 L 131.000 262.600 125.177 262.490 C 121.974 262.429,119.229 262.504,119.077 262.656 M169.077 262.656 C 168.925 262.809,168.800 265.603,168.800 268.867 L 168.800 274.800 175.010 274.800 L 181.221 274.800 181.110 268.700 L 181.000 262.600 175.177 262.490 C 171.974 262.429,169.229 262.504,169.077 262.656 M219.077 262.656 C 218.925 262.809,218.800 265.603,218.800 268.867 L 218.800 274.800 225.010 274.800 L 231.221 274.800 231.110 268.700 L 231.000 262.600 225.177 262.490 C 221.974 262.429,219.229 262.504,219.077 262.656 M269.077 262.656 C 268.925 262.809,268.800 265.603,268.800 268.867 L 268.800 274.800 275.010 274.800 L 281.221 274.800 281.110 268.700 L 281.000 262.600 275.177 262.490 C 271.974 262.429,269.229 262.504,269.077 262.656 M119.077 312.656 C 118.925 312.809,118.800 315.603,118.800 318.867 L 118.800 324.800 125.010 324.800 L 131.221 324.800 131.110 318.700 L 131.000 312.600 125.177 312.490 C 121.974 312.429,119.229 312.504,119.077 312.656 M169.072 312.661 C 168.923 312.811,168.800 321.273,168.800 331.467 L 168.800 350.000 181.204 350.000 L 193.608 350.000 193.504 331.300 L 193.400 312.600 181.372 312.494 C 174.757 312.436,169.222 312.511,169.072 312.661 M206.672 312.661 C 206.523 312.811,206.400 321.273,206.400 331.467 L 206.400 350.000 218.804 350.000 L 231.208 350.000 231.104 331.300 L 231.000 312.600 218.972 312.494 C 212.357 312.436,206.822 312.511,206.672 312.661 M269.077 312.656 C 268.925 312.809,268.800 315.603,268.800 318.867 L 268.800 324.800 275.010 324.800 L 281.221 324.800 281.110 318.700 L 281.000 312.600 275.177 312.490 C 271.974 312.429,269.229 312.504,269.077 312.656 M118.800 343.800 L 118.800 350.000 125.000 350.000 L 131.200 350.000 131.200 343.800 L 131.200 337.600 125.000 337.600 L 118.800 337.600 118.800 343.800 M268.800 343.800 L 268.800 350.000 275.000 350.000 L 281.200 350.000 281.200 343.800 L 281.200 337.600 275.000 337.600 L 268.800 337.600 268.800 343.800 " stroke="none" fill="#4394bc" fill-rule="evenodd"></path><path id="path2" d="M81.200 368.800 L 81.200 374.800 118.600 374.800 L 156.000 374.800 156.000 368.800 L 156.000 362.800 118.600 362.800 L 81.200 362.800 81.200 368.800 M168.800 368.800 L 168.800 374.800 200.000 374.800 L 231.200 374.800 231.200 368.800 L 231.200 362.800 200.000 362.800 L 168.800 362.800 168.800 368.800 M244.000 368.800 L 244.000 374.800 281.200 374.800 L 318.400 374.800 318.400 368.800 L 318.400 362.800 281.200 362.800 L 244.000 362.800 244.000 368.800 " stroke="none" fill="#dadad9" fill-rule="evenodd"></path><path id="path3" d="M84.000 12.305 C 84.000 12.473,83.595 12.788,83.100 13.005 C 82.605 13.222,82.022 13.805,81.805 14.300 C 81.588 14.795,81.273 15.200,81.105 15.200 C 80.937 15.200,80.800 25.938,80.800 39.061 L 80.800 62.923 85.663 62.661 C 88.337 62.518,91.213 62.400,92.053 62.400 L 93.580 62.400 93.690 56.100 L 93.800 49.800 100.000 49.800 L 106.200 49.800 106.310 56.100 L 106.420 62.400 112.410 62.400 L 118.400 62.400 118.400 56.243 C 118.400 48.949,117.753 49.600,125.000 49.600 C 132.247 49.600,131.600 48.949,131.600 56.243 L 131.600 62.400 137.590 62.400 L 143.580 62.400 143.690 56.100 L 143.800 49.800 150.000 49.800 L 156.200 49.800 156.310 56.100 L 156.420 62.400 162.410 62.400 L 168.400 62.400 168.400 56.243 C 168.400 48.949,167.753 49.600,175.000 49.600 C 182.247 49.600,181.600 48.949,181.600 56.243 L 181.600 62.400 187.590 62.400 L 193.580 62.400 193.690 56.100 L 193.800 49.800 200.000 49.800 L 206.200 49.800 206.310 56.100 L 206.420 62.400 212.410 62.400 L 218.400 62.400 218.400 56.243 C 218.400 48.949,217.753 49.600,225.000 49.600 C 232.247 49.600,231.600 48.949,231.600 56.243 L 231.600 62.400 237.590 62.400 L 243.580 62.400 243.690 56.100 L 243.800 49.800 250.000 49.800 L 256.200 49.800 256.310 56.100 L 256.420 62.400 262.410 62.400 L 268.400 62.400 268.400 56.243 C 268.400 48.949,267.753 49.600,275.000 49.600 C 282.247 49.600,281.600 48.949,281.600 56.243 L 281.600 62.400 287.590 62.400 L 293.580 62.400 293.690 56.100 L 293.800 49.800 300.000 49.800 L 306.200 49.800 306.301 168.500 L 306.401 287.200 309.377 287.200 C 311.014 287.200,312.464 287.380,312.600 287.600 C 312.736 287.820,314.277 288.000,316.024 288.000 L 319.200 288.000 319.200 151.600 C 319.200 76.580,319.063 15.200,318.895 15.200 C 318.727 15.200,318.412 14.795,318.195 14.300 C 317.978 13.805,317.395 13.222,316.900 13.005 C 316.405 12.788,316.000 12.473,316.000 12.305 C 316.000 12.137,263.800 12.000,200.000 12.000 C 136.200 12.000,84.000 12.137,84.000 12.305 M306.400 31.200 L 306.400 37.600 200.000 37.600 L 93.600 37.600 93.600 31.200 L 93.600 24.800 200.000 24.800 L 306.400 24.800 306.400 31.200 M80.800 212.200 L 80.800 349.600 76.200 349.600 C 73.400 349.600,71.600 349.757,71.600 350.000 C 71.600 350.220,71.317 350.400,70.971 350.400 C 70.163 350.400,69.200 351.363,69.200 352.171 C 69.200 352.517,69.020 352.800,68.800 352.800 C 68.543 352.800,68.400 356.733,68.400 363.800 L 68.400 374.800 57.800 374.800 L 47.200 374.800 47.200 367.771 C 47.200 360.152,47.347 359.600,49.371 359.600 C 49.937 359.600,50.400 359.420,50.400 359.200 C 50.400 358.980,50.940 358.800,51.600 358.800 C 52.260 358.800,52.800 358.620,52.800 358.400 C 52.800 358.180,53.079 358.000,53.419 358.000 C 55.114 358.000,63.600 350.911,63.600 349.496 C 63.600 349.210,63.960 348.717,64.400 348.400 C 64.840 348.083,65.200 347.503,65.200 347.112 C 65.200 346.720,65.335 346.399,65.500 346.397 C 65.859 346.393,66.800 344.456,66.800 343.720 C 66.800 343.434,66.980 343.200,67.200 343.200 C 67.420 343.200,67.600 342.840,67.600 342.400 C 67.600 341.960,67.780 341.600,68.000 341.600 C 68.220 341.600,68.400 340.981,68.400 340.224 C 68.400 339.467,68.580 338.736,68.800 338.600 C 69.341 338.266,69.341 324.800,68.800 324.800 C 68.580 324.800,68.400 324.080,68.400 323.200 C 68.400 322.320,68.253 321.600,68.072 321.600 C 67.892 321.600,67.500 320.700,67.200 319.600 C 66.900 318.500,66.508 317.600,66.328 317.600 C 66.147 317.600,66.000 317.240,66.000 316.800 C 66.000 316.360,65.820 316.000,65.600 316.000 C 65.380 316.000,65.200 315.640,65.200 315.200 C 65.200 314.760,65.020 314.400,64.800 314.400 C 64.580 314.400,64.400 313.860,64.400 313.200 C 64.400 312.540,64.220 312.000,64.000 312.000 C 63.744 312.000,63.600 308.408,63.600 302.024 C 63.600 295.804,63.449 291.954,63.200 291.800 C 62.980 291.664,62.800 290.933,62.800 290.176 C 62.800 289.419,62.620 288.800,62.400 288.800 C 62.180 288.800,62.000 288.440,62.000 288.000 C 62.000 287.560,61.820 287.200,61.600 287.200 C 61.380 287.200,61.200 286.880,61.200 286.488 C 61.200 286.097,60.840 285.517,60.400 285.200 C 59.960 284.883,59.600 284.399,59.600 284.125 C 59.600 283.215,55.008 278.400,54.141 278.400 C 53.843 278.400,53.600 278.248,53.600 278.063 C 53.600 277.653,50.842 276.229,48.450 275.404 C 45.982 274.553,35.198 274.557,32.750 275.410 C 26.832 277.473,25.613 279.177,28.204 281.768 C 28.752 282.315,29.200 283.042,29.200 283.382 C 29.200 283.775,29.565 284.000,30.204 284.000 C 30.973 284.000,31.604 284.556,32.904 286.378 C 34.791 289.025,34.915 289.080,36.830 288.125 C 45.048 284.025,52.237 292.245,50.365 303.600 C 49.623 308.103,51.007 316.086,53.482 321.572 C 56.999 329.371,57.322 332.740,55.059 338.000 C 53.614 341.359,48.273 346.863,47.139 346.162 C 46.953 346.047,46.800 337.773,46.800 327.776 L 46.800 309.600 40.600 309.600 L 34.400 309.600 34.400 327.733 C 34.400 337.707,34.287 345.980,34.149 346.118 C 33.811 346.455,30.896 344.396,29.363 342.738 C 24.415 337.383,23.513 330.821,26.760 323.800 C 28.343 320.376,28.710 319.473,29.524 317.000 C 30.767 313.224,31.319 308.906,31.037 305.166 C 30.897 303.315,30.680 300.244,30.553 298.342 L 30.324 294.884 27.957 294.220 C 26.655 293.855,25.275 293.217,24.890 292.804 C 24.056 291.909,22.325 291.200,20.974 291.200 C 20.438 291.200,20.000 291.020,20.000 290.800 C 20.000 290.580,19.640 290.400,19.200 290.400 C 18.667 290.400,18.400 290.667,18.400 291.200 C 18.400 291.640,18.220 292.000,18.000 292.000 C 17.749 292.000,17.600 294.467,17.600 298.600 C 17.600 302.733,17.749 305.200,18.000 305.200 C 18.220 305.200,18.400 305.920,18.400 306.800 C 18.400 307.680,18.220 308.400,18.000 308.400 C 17.780 308.400,17.600 309.199,17.600 310.176 C 17.600 311.153,17.420 312.064,17.200 312.200 C 16.980 312.336,16.800 312.887,16.800 313.424 C 16.800 313.961,16.620 314.400,16.400 314.400 C 16.180 314.400,16.000 314.630,16.000 314.910 C 16.000 315.191,15.466 316.496,14.813 317.810 C 14.159 319.125,13.619 320.515,13.613 320.900 C 13.606 321.285,13.420 321.600,13.200 321.600 C 12.980 321.600,12.800 322.320,12.800 323.200 C 12.800 324.080,12.620 324.800,12.400 324.800 C 11.859 324.800,11.859 338.266,12.400 338.600 C 12.620 338.736,12.800 339.467,12.800 340.224 C 12.800 340.981,12.980 341.600,13.200 341.600 C 13.420 341.600,13.600 341.960,13.600 342.400 C 13.600 342.840,13.780 343.200,14.000 343.200 C 14.220 343.200,14.400 343.434,14.400 343.720 C 14.400 344.456,15.341 346.393,15.700 346.397 C 15.865 346.399,16.000 346.720,16.000 347.112 C 16.000 347.503,16.360 348.083,16.800 348.400 C 17.240 348.717,17.600 349.210,17.600 349.496 C 17.600 350.059,22.573 355.200,23.117 355.200 C 23.300 355.200,23.798 355.517,24.225 355.904 C 25.327 356.905,29.131 358.800,30.037 358.800 C 30.457 358.800,30.800 358.980,30.800 359.200 C 30.800 359.420,31.263 359.600,31.829 359.600 C 33.853 359.600,34.000 360.152,34.000 367.771 L 34.000 374.800 23.000 374.800 L 12.000 374.800 12.000 381.400 L 12.000 388.000 200.000 388.000 L 388.000 388.000 388.000 381.400 L 388.000 374.800 377.000 374.800 L 366.000 374.800 366.000 367.771 C 366.000 360.152,366.147 359.600,368.171 359.600 C 368.737 359.600,369.200 359.420,369.200 359.200 C 369.200 358.980,369.526 358.800,369.925 358.800 C 370.808 358.800,374.694 356.963,375.486 356.172 C 375.800 355.857,376.215 355.600,376.409 355.600 C 376.980 355.600,382.400 350.088,382.400 349.508 C 382.400 349.216,382.760 348.717,383.200 348.400 C 383.640 348.083,384.000 347.503,384.000 347.112 C 384.000 346.720,384.135 346.399,384.300 346.397 C 384.659 346.393,385.600 344.456,385.600 343.720 C 385.600 343.434,385.780 343.200,386.000 343.200 C 386.220 343.200,386.400 342.851,386.400 342.424 C 386.400 341.997,386.580 341.536,386.800 341.400 C 387.020 341.264,387.200 340.634,387.200 340.000 C 387.200 339.366,387.380 338.736,387.600 338.600 C 387.841 338.451,388.000 335.663,388.000 331.576 C 388.000 327.325,387.851 324.800,387.600 324.800 C 387.380 324.800,387.200 324.080,387.200 323.200 C 387.200 322.320,387.020 321.600,386.800 321.600 C 386.580 321.600,386.400 321.328,386.400 320.995 C 386.400 320.662,386.220 320.032,386.000 319.595 C 385.780 319.158,385.420 318.442,385.200 318.005 C 384.980 317.568,384.800 316.938,384.800 316.605 C 384.800 316.272,384.620 316.000,384.400 316.000 C 384.180 316.000,384.000 315.640,384.000 315.200 C 384.000 314.760,383.820 314.400,383.600 314.400 C 383.380 314.400,383.200 313.860,383.200 313.200 C 383.200 312.540,383.020 312.000,382.800 312.000 C 382.544 312.000,382.400 308.408,382.400 302.024 C 382.400 295.804,382.249 291.954,382.000 291.800 C 381.780 291.664,381.600 290.933,381.600 290.176 C 381.600 289.419,381.420 288.800,381.200 288.800 C 380.980 288.800,380.800 288.440,380.800 288.000 C 380.800 287.560,380.620 287.200,380.400 287.200 C 380.180 287.200,380.000 286.880,380.000 286.488 C 380.000 286.097,379.640 285.517,379.200 285.200 C 378.760 284.883,378.400 284.390,378.400 284.104 C 378.400 283.495,373.405 278.400,372.807 278.400 C 372.583 278.400,372.400 278.241,372.400 278.047 C 372.400 277.597,368.695 275.801,366.600 275.236 C 364.102 274.562,353.652 274.679,351.550 275.404 C 349.158 276.229,346.400 277.653,346.400 278.063 C 346.400 278.248,346.157 278.400,345.859 278.400 C 344.992 278.400,340.400 283.215,340.400 284.125 C 340.400 284.399,340.040 284.883,339.600 285.200 C 339.160 285.517,338.800 286.097,338.800 286.488 C 338.800 286.880,338.620 287.200,338.400 287.200 C 338.180 287.200,338.000 287.549,338.000 287.976 C 338.000 288.403,337.820 288.864,337.600 289.000 C 337.380 289.136,337.200 289.867,337.200 290.624 C 337.200 291.381,337.020 292.000,336.800 292.000 C 336.549 292.000,336.400 294.467,336.400 298.600 C 336.400 302.733,336.549 305.200,336.800 305.200 C 337.020 305.200,337.200 305.920,337.200 306.800 C 337.200 307.680,337.020 308.400,336.800 308.400 C 336.580 308.400,336.400 309.210,336.400 310.200 C 336.400 311.190,336.220 312.000,336.000 312.000 C 335.780 312.000,335.600 312.540,335.600 313.200 C 335.600 313.860,335.420 314.400,335.200 314.400 C 334.980 314.400,334.800 314.760,334.800 315.200 C 334.800 315.640,334.620 316.000,334.400 316.000 C 334.180 316.000,334.000 316.360,334.000 316.800 C 334.000 317.240,333.820 317.600,333.600 317.600 C 333.380 317.600,333.200 317.949,333.200 318.376 C 333.200 318.803,333.020 319.264,332.800 319.400 C 332.580 319.536,332.400 320.087,332.400 320.624 C 332.400 321.161,332.220 321.600,332.000 321.600 C 331.780 321.600,331.600 322.320,331.600 323.200 C 331.600 324.080,331.420 324.800,331.200 324.800 C 330.949 324.800,330.800 327.325,330.800 331.576 C 330.800 335.663,330.959 338.451,331.200 338.600 C 331.420 338.736,331.600 339.467,331.600 340.224 C 331.600 340.981,331.780 341.600,332.000 341.600 C 332.220 341.600,332.400 341.960,332.400 342.400 C 332.400 342.840,332.580 343.200,332.800 343.200 C 333.020 343.200,333.200 343.434,333.200 343.720 C 333.200 344.456,334.141 346.393,334.500 346.397 C 334.665 346.399,334.800 346.720,334.800 347.112 C 334.800 347.503,335.160 348.083,335.600 348.400 C 336.040 348.717,336.400 349.210,336.400 349.496 C 336.400 350.075,341.381 355.200,341.944 355.200 C 342.141 355.200,342.522 355.465,342.790 355.788 C 343.441 356.572,347.934 358.800,348.864 358.800 C 349.269 358.800,349.600 358.980,349.600 359.200 C 349.600 359.420,350.063 359.600,350.629 359.600 C 352.653 359.600,352.800 360.152,352.800 367.771 L 352.800 374.800 342.200 374.800 L 331.600 374.800 331.600 363.800 C 331.600 356.733,331.457 352.800,331.200 352.800 C 330.980 352.800,330.800 352.517,330.800 352.171 C 330.800 351.363,329.837 350.400,329.029 350.400 C 328.683 350.400,328.400 350.220,328.400 350.000 C 328.400 349.757,326.600 349.600,323.800 349.600 L 319.200 349.600 319.200 324.600 L 319.200 299.600 316.024 299.600 C 314.277 299.600,312.736 299.780,312.600 300.000 C 312.464 300.220,311.015 300.400,309.379 300.400 L 306.406 300.400 306.303 325.300 L 306.200 350.200 300.000 350.200 L 293.800 350.200 293.600 327.600 C 293.333 297.379,295.552 300.600,275.000 300.600 C 254.448 300.600,256.667 297.379,256.400 327.600 L 256.200 350.200 250.000 350.200 L 243.800 350.200 243.600 327.600 C 243.380 302.744,243.435 303.276,240.887 301.400 C 239.817 300.613,239.171 300.600,200.000 300.600 C 160.829 300.600,160.183 300.613,159.113 301.400 C 156.565 303.276,156.620 302.744,156.400 327.600 L 156.200 350.200 150.000 350.200 L 143.800 350.200 143.600 327.600 C 143.333 297.379,145.552 300.600,125.000 300.600 C 104.448 300.600,106.667 297.379,106.400 327.600 L 106.200 350.200 100.000 350.200 L 93.800 350.200 93.699 212.761 L 93.599 75.323 88.737 75.061 C 86.062 74.918,83.183 74.800,82.337 74.800 L 80.800 74.800 80.800 212.200 M110.336 75.738 C 106.282 77.540,106.400 76.622,106.400 106.253 C 106.400 140.592,104.367 137.200,124.947 137.200 C 140.739 137.200,141.437 137.042,143.124 133.081 C 143.742 131.630,143.815 80.180,143.200 79.800 C 142.980 79.664,142.800 79.237,142.800 78.851 C 142.800 78.017,141.049 76.342,139.481 75.675 C 137.918 75.011,111.846 75.067,110.336 75.738 M160.336 75.738 C 156.282 77.540,156.400 76.622,156.400 106.253 C 156.400 140.592,154.367 137.200,174.947 137.200 C 190.739 137.200,191.437 137.042,193.124 133.081 C 193.742 131.630,193.815 80.180,193.200 79.800 C 192.980 79.664,192.800 79.237,192.800 78.851 C 192.800 78.017,191.049 76.342,189.481 75.675 C 187.918 75.011,161.846 75.067,160.336 75.738 M210.336 75.738 C 206.282 77.540,206.400 76.622,206.400 106.253 C 206.400 140.592,204.367 137.200,224.947 137.200 C 240.739 137.200,241.437 137.042,243.124 133.081 C 243.742 131.630,243.815 80.180,243.200 79.800 C 242.980 79.664,242.800 79.237,242.800 78.851 C 242.800 78.017,241.049 76.342,239.481 75.675 C 237.918 75.011,211.846 75.067,210.336 75.738 M260.336 75.738 C 256.282 77.540,256.400 76.622,256.400 106.253 C 256.400 140.592,254.367 137.200,274.947 137.200 C 290.739 137.200,291.437 137.042,293.124 133.081 C 293.742 131.630,293.815 80.180,293.200 79.800 C 292.980 79.664,292.800 79.237,292.800 78.851 C 292.800 78.017,291.049 76.342,289.481 75.675 C 287.918 75.011,261.846 75.067,260.336 75.738 M131.200 93.800 L 131.200 100.000 125.000 100.000 L 118.800 100.000 118.800 93.800 L 118.800 87.600 125.000 87.600 L 131.200 87.600 131.200 93.800 M181.200 93.800 L 181.200 100.000 175.000 100.000 L 168.800 100.000 168.800 93.800 L 168.800 87.600 175.000 87.600 L 181.200 87.600 181.200 93.800 M231.200 93.800 L 231.200 100.000 225.000 100.000 L 218.800 100.000 218.800 93.800 L 218.800 87.600 225.000 87.600 L 231.200 87.600 231.200 93.800 M281.200 93.800 L 281.200 100.000 275.000 100.000 L 268.800 100.000 268.800 93.800 L 268.800 87.600 275.000 87.600 L 281.200 87.600 281.200 93.800 M131.110 118.700 L 131.000 125.000 125.000 125.000 L 119.000 125.000 118.890 118.700 L 118.780 112.400 125.000 112.400 L 131.220 112.400 131.110 118.700 M181.110 118.700 L 181.000 125.000 175.000 125.000 L 169.000 125.000 168.890 118.700 L 168.780 112.400 175.000 112.400 L 181.220 112.400 181.110 118.700 M231.110 118.700 L 231.000 125.000 225.000 125.000 L 219.000 125.000 218.890 118.700 L 218.780 112.400 225.000 112.400 L 231.220 112.400 231.110 118.700 M281.110 118.700 L 281.000 125.000 275.000 125.000 L 269.000 125.000 268.890 118.700 L 268.780 112.400 275.000 112.400 L 281.220 112.400 281.110 118.700 M110.200 150.778 C 106.356 152.424,106.400 152.067,106.400 181.438 L 106.400 207.179 107.360 208.888 C 109.261 212.272,109.795 212.377,125.000 212.377 C 140.205 212.377,140.739 212.272,142.640 208.888 L 143.600 207.179 143.600 181.385 C 143.600 152.729,143.665 153.443,140.888 151.400 C 139.711 150.534,112.078 149.974,110.200 150.778 M160.200 150.778 C 156.356 152.424,156.400 152.067,156.400 181.438 L 156.400 207.179 157.360 208.888 C 159.261 212.272,159.795 212.377,175.000 212.377 C 190.205 212.377,190.739 212.272,192.640 208.888 L 193.600 207.179 193.600 181.385 C 193.600 152.729,193.665 153.443,190.888 151.400 C 189.711 150.534,162.078 149.974,160.200 150.778 M210.200 150.778 C 206.356 152.424,206.400 152.067,206.400 181.438 L 206.400 207.179 207.360 208.888 C 209.261 212.272,209.795 212.377,225.000 212.377 C 240.205 212.377,240.739 212.272,242.640 208.888 L 243.600 207.179 243.600 181.385 C 243.600 152.729,243.665 153.443,240.888 151.400 C 239.711 150.534,212.078 149.974,210.200 150.778 M260.200 150.778 C 256.356 152.424,256.400 152.067,256.400 181.438 L 256.400 207.179 257.360 208.888 C 259.261 212.272,259.795 212.377,275.000 212.377 C 290.205 212.377,290.739 212.272,292.640 208.888 L 293.600 207.179 293.600 181.385 C 293.600 152.729,293.665 153.443,290.888 151.400 C 289.711 150.534,262.078 149.974,260.200 150.778 M131.110 168.700 L 131.000 175.000 125.000 175.000 L 119.000 175.000 118.890 168.700 L 118.780 162.400 125.000 162.400 L 131.220 162.400 131.110 168.700 M181.110 168.700 L 181.000 175.000 175.000 175.000 L 169.000 175.000 168.890 168.700 L 168.780 162.400 175.000 162.400 L 181.220 162.400 181.110 168.700 M231.110 168.700 L 231.000 175.000 225.000 175.000 L 219.000 175.000 218.890 168.700 L 218.780 162.400 225.000 162.400 L 231.220 162.400 231.110 168.700 M281.110 168.700 L 281.000 175.000 275.000 175.000 L 269.000 175.000 268.890 168.700 L 268.780 162.400 275.000 162.400 L 281.220 162.400 281.110 168.700 M131.200 193.800 L 131.200 200.000 125.000 200.000 L 118.800 200.000 118.800 193.800 L 118.800 187.600 125.000 187.600 L 131.200 187.600 131.200 193.800 M181.200 193.800 L 181.200 200.000 175.000 200.000 L 168.800 200.000 168.800 193.800 L 168.800 187.600 175.000 187.600 L 181.200 187.600 181.200 193.800 M231.200 193.800 L 231.200 200.000 225.000 200.000 L 218.800 200.000 218.800 193.800 L 218.800 187.600 225.000 187.600 L 231.200 187.600 231.200 193.800 M281.200 193.800 L 281.200 200.000 275.000 200.000 L 268.800 200.000 268.800 193.800 L 268.800 187.600 275.000 187.600 L 281.200 187.600 281.200 193.800 M110.336 225.738 C 106.282 227.540,106.400 226.622,106.400 256.253 C 106.400 290.592,104.367 287.200,124.947 287.200 C 140.739 287.200,141.437 287.042,143.124 283.081 C 143.742 281.630,143.815 230.180,143.200 229.800 C 142.980 229.664,142.800 229.237,142.800 228.851 C 142.800 228.017,141.049 226.342,139.481 225.675 C 137.918 225.011,111.846 225.067,110.336 225.738 M160.336 225.738 C 156.282 227.540,156.400 226.622,156.400 256.253 C 156.400 290.592,154.367 287.200,174.947 287.200 C 190.739 287.200,191.437 287.042,193.124 283.081 C 193.742 281.630,193.815 230.180,193.200 229.800 C 192.980 229.664,192.800 229.237,192.800 228.851 C 192.800 228.017,191.049 226.342,189.481 225.675 C 187.918 225.011,161.846 225.067,160.336 225.738 M210.336 225.738 C 206.282 227.540,206.400 226.622,206.400 256.253 C 206.400 290.592,204.367 287.200,224.947 287.200 C 240.739 287.200,241.437 287.042,243.124 283.081 C 243.742 281.630,243.815 230.180,243.200 229.800 C 242.980 229.664,242.800 229.237,242.800 228.851 C 242.800 228.017,241.049 226.342,239.481 225.675 C 237.918 225.011,211.846 225.067,210.336 225.738 M260.336 225.738 C 256.282 227.540,256.400 226.622,256.400 256.253 C 256.400 290.592,254.367 287.200,274.947 287.200 C 290.739 287.200,291.437 287.042,293.124 283.081 C 293.742 281.630,293.815 230.180,293.200 229.800 C 292.980 229.664,292.800 229.237,292.800 228.851 C 292.800 228.017,291.049 226.342,289.481 225.675 C 287.918 225.011,261.846 225.067,260.336 225.738 M131.200 243.800 L 131.200 250.000 125.000 250.000 L 118.800 250.000 118.800 243.800 L 118.800 237.600 125.000 237.600 L 131.200 237.600 131.200 243.800 M181.200 243.800 L 181.200 250.000 175.000 250.000 L 168.800 250.000 168.800 243.800 L 168.800 237.600 175.000 237.600 L 181.200 237.600 181.200 243.800 M231.200 243.800 L 231.200 250.000 225.000 250.000 L 218.800 250.000 218.800 243.800 L 218.800 237.600 225.000 237.600 L 231.200 237.600 231.200 243.800 M281.200 243.800 L 281.200 250.000 275.000 250.000 L 268.800 250.000 268.800 243.800 L 268.800 237.600 275.000 237.600 L 281.200 237.600 281.200 243.800 M131.110 268.700 L 131.000 275.000 125.000 275.000 L 119.000 275.000 118.890 268.700 L 118.780 262.400 125.000 262.400 L 131.220 262.400 131.110 268.700 M181.110 268.700 L 181.000 275.000 175.000 275.000 L 169.000 275.000 168.890 268.700 L 168.780 262.400 175.000 262.400 L 181.220 262.400 181.110 268.700 M231.110 268.700 L 231.000 275.000 225.000 275.000 L 219.000 275.000 218.890 268.700 L 218.780 262.400 225.000 262.400 L 231.220 262.400 231.110 268.700 M281.110 268.700 L 281.000 275.000 275.000 275.000 L 269.000 275.000 268.890 268.700 L 268.780 262.400 275.000 262.400 L 281.220 262.400 281.110 268.700 M363.800 288.463 C 366.135 289.643,367.531 291.115,368.674 293.600 C 369.745 295.931,369.754 296.288,368.982 305.200 C 368.772 307.613,369.391 312.826,370.310 316.400 C 370.509 317.170,371.441 319.600,372.382 321.800 C 376.220 330.769,376.092 335.508,371.854 341.315 C 370.240 343.527,366.568 346.551,365.955 346.172 C 365.757 346.050,365.600 337.928,365.600 327.776 L 365.600 309.600 359.400 309.600 L 353.200 309.600 353.200 327.776 C 353.200 337.773,353.044 346.049,352.853 346.167 C 352.177 346.585,348.145 343.247,346.773 341.135 C 344.270 337.280,343.600 335.282,343.600 331.669 C 343.600 328.543,343.936 327.369,346.486 321.600 C 349.148 315.576,350.270 310.067,349.835 305.145 C 348.862 294.108,349.290 292.475,354.122 288.812 C 356.323 287.145,360.867 286.980,363.800 288.463 M131.110 318.700 L 131.000 325.000 125.000 325.000 L 119.000 325.000 118.890 318.700 L 118.780 312.400 125.000 312.400 L 131.220 312.400 131.110 318.700 M193.600 331.200 L 193.600 350.000 181.200 350.000 L 168.800 350.000 168.800 331.200 L 168.800 312.400 181.200 312.400 L 193.600 312.400 193.600 331.200 M231.200 331.200 L 231.200 350.000 218.800 350.000 L 206.400 350.000 206.400 331.200 L 206.400 312.400 218.800 312.400 L 231.200 312.400 231.200 331.200 M281.110 318.700 L 281.000 325.000 275.000 325.000 L 269.000 325.000 268.890 318.700 L 268.780 312.400 275.000 312.400 L 281.220 312.400 281.110 318.700 M131.200 343.800 L 131.200 350.000 125.000 350.000 L 118.800 350.000 118.800 343.800 L 118.800 337.600 125.000 337.600 L 131.200 337.600 131.200 343.800 M281.200 343.800 L 281.200 350.000 275.000 350.000 L 268.800 350.000 268.800 343.800 L 268.800 337.600 275.000 337.600 L 281.200 337.600 281.200 343.800 M156.400 368.800 L 156.400 375.200 118.800 375.200 L 81.200 375.200 81.200 368.800 L 81.200 362.400 118.800 362.400 L 156.400 362.400 156.400 368.800 M231.400 368.800 L 231.400 375.000 200.000 375.000 L 168.600 375.000 168.489 369.218 C 168.427 366.039,168.467 363.202,168.577 362.916 C 168.739 362.493,174.667 362.414,200.088 362.498 L 231.400 362.600 231.400 368.800 M318.800 368.800 L 318.800 375.200 281.200 375.200 L 243.600 375.200 243.600 368.800 L 243.600 362.400 281.200 362.400 L 318.800 362.400 318.800 368.800 " stroke="none" fill="#040404" fill-rule="evenodd"></path><path id="path4" d="M93.600 31.200 L 93.600 37.600 200.000 37.600 L 306.400 37.600 306.400 31.200 L 306.400 24.800 200.000 24.800 L 93.600 24.800 93.600 31.200 M306.000 31.200 L 306.000 37.200 200.000 37.200 L 94.000 37.200 94.000 31.200 L 94.000 25.200 200.000 25.200 L 306.000 25.200 306.000 31.200 M93.877 49.857 C 93.725 50.009,93.600 52.886,93.600 56.250 L 93.600 62.368 90.500 62.508 L 87.400 62.648 90.600 62.624 L 93.800 62.600 93.910 56.300 L 94.020 50.000 100.000 50.000 L 105.980 50.000 106.090 56.300 L 106.200 62.600 112.400 62.600 L 118.600 62.600 118.800 56.400 L 119.000 50.200 125.000 50.200 L 131.000 50.200 131.200 56.400 L 131.400 62.600 137.600 62.600 L 143.800 62.600 143.910 56.300 L 144.020 50.000 150.000 50.000 L 155.980 50.000 156.090 56.300 L 156.200 62.600 162.400 62.600 L 168.600 62.600 168.800 56.400 L 169.000 50.200 175.000 50.200 L 181.000 50.200 181.200 56.400 L 181.400 62.600 187.600 62.600 L 193.800 62.600 193.910 56.300 L 194.020 50.000 200.000 50.000 L 205.980 50.000 206.090 56.300 L 206.200 62.600 212.400 62.600 L 218.600 62.600 218.800 56.400 L 219.000 50.200 225.000 50.200 L 231.000 50.200 231.200 56.400 L 231.400 62.600 237.600 62.600 L 243.800 62.600 243.910 56.300 L 244.020 50.000 250.000 50.000 L 255.980 50.000 256.090 56.300 L 256.200 62.600 262.400 62.600 L 268.600 62.600 268.800 56.400 L 269.000 50.200 275.000 50.200 L 281.000 50.200 281.200 56.400 L 281.400 62.600 287.600 62.600 L 293.800 62.600 293.910 56.300 L 294.020 50.000 300.009 50.000 L 305.999 50.000 306.099 168.700 L 306.200 287.400 309.200 287.425 L 312.200 287.450 309.301 287.308 L 306.401 287.166 306.301 168.483 L 306.200 49.800 300.000 49.800 L 293.800 49.800 293.690 56.100 L 293.580 62.400 287.590 62.400 L 281.600 62.400 281.600 56.243 C 281.600 48.949,282.247 49.600,275.000 49.600 C 267.753 49.600,268.400 48.949,268.400 56.243 L 268.400 62.400 262.410 62.400 L 256.420 62.400 256.310 56.100 L 256.200 49.800 250.000 49.800 L 243.800 49.800 243.690 56.100 L 243.580 62.400 237.590 62.400 L 231.600 62.400 231.600 56.243 C 231.600 48.949,232.247 49.600,225.000 49.600 C 217.753 49.600,218.400 48.949,218.400 56.243 L 218.400 62.400 212.410 62.400 L 206.420 62.400 206.310 56.100 L 206.200 49.800 200.000 49.800 L 193.800 49.800 193.690 56.100 L 193.580 62.400 187.590 62.400 L 181.600 62.400 181.600 56.243 C 181.600 48.949,182.247 49.600,175.000 49.600 C 167.753 49.600,168.400 48.949,168.400 56.243 L 168.400 62.400 162.410 62.400 L 156.420 62.400 156.310 56.100 L 156.200 49.800 150.000 49.800 L 143.800 49.800 143.690 56.100 L 143.580 62.400 137.590 62.400 L 131.600 62.400 131.600 56.243 C 131.600 48.949,132.247 49.600,125.000 49.600 C 117.753 49.600,118.400 48.949,118.400 56.243 L 118.400 62.400 112.410 62.400 L 106.420 62.400 106.310 56.100 L 106.200 49.800 100.177 49.690 C 96.864 49.629,94.029 49.704,93.877 49.857 M90.499 75.092 L 93.599 75.232 93.699 212.716 L 93.800 350.200 100.000 350.200 L 106.200 350.200 106.400 327.600 C 106.667 297.379,104.448 300.600,125.000 300.600 C 145.552 300.600,143.333 297.379,143.600 327.600 L 143.800 350.200 150.000 350.200 L 156.200 350.200 156.400 327.600 C 156.620 302.744,156.565 303.276,159.113 301.400 C 160.183 300.613,160.829 300.600,200.000 300.600 C 239.171 300.600,239.817 300.613,240.887 301.400 C 243.435 303.276,243.380 302.744,243.600 327.600 L 243.800 350.200 250.000 350.200 L 256.200 350.200 256.400 327.600 C 256.667 297.379,254.448 300.600,275.000 300.600 C 295.552 300.600,293.333 297.379,293.600 327.600 L 293.800 350.200 300.000 350.200 L 306.200 350.200 306.303 325.300 L 306.406 300.400 309.379 300.400 C 311.015 300.400,312.437 300.265,312.540 300.100 C 312.642 299.935,311.213 299.858,309.363 299.929 L 306.000 300.059 306.000 325.029 L 306.000 350.000 300.000 350.000 L 294.000 350.000 294.000 327.596 C 294.000 297.043,296.036 300.000,275.000 300.000 C 253.946 300.000,256.000 297.024,256.000 327.526 L 256.000 350.000 250.000 350.000 L 244.000 350.000 244.000 327.596 C 244.000 302.419,244.051 302.873,241.002 300.900 L 239.611 300.000 200.000 300.000 L 160.389 300.000 158.991 300.900 C 155.934 302.868,156.000 302.280,156.000 327.526 L 156.000 350.000 150.000 350.000 L 144.000 350.000 144.000 327.596 C 144.000 297.043,146.036 300.000,125.000 300.000 C 103.946 300.000,106.000 297.024,106.000 327.526 L 106.000 350.000 100.001 350.000 L 94.001 350.000 93.901 212.500 L 93.800 75.000 90.600 74.976 L 87.400 74.952 90.499 75.092 M109.703 75.375 C 105.857 77.502,106.000 76.312,106.000 106.200 C 106.000 136.102,105.873 135.090,109.874 137.150 C 111.177 137.821,138.897 137.775,140.105 137.100 C 144.177 134.824,144.000 136.229,144.000 106.135 C 144.000 76.006,144.200 77.589,140.105 75.300 C 138.832 74.588,111.001 74.657,109.703 75.375 M159.703 75.375 C 155.857 77.502,156.000 76.312,156.000 106.200 C 156.000 136.102,155.873 135.090,159.874 137.150 C 161.177 137.821,188.897 137.775,190.105 137.100 C 194.177 134.824,194.000 136.229,194.000 106.135 C 194.000 76.006,194.200 77.589,190.105 75.300 C 188.832 74.588,161.001 74.657,159.703 75.375 M209.703 75.375 C 205.857 77.502,206.000 76.312,206.000 106.200 C 206.000 136.102,205.873 135.090,209.874 137.150 C 211.177 137.821,238.897 137.775,240.105 137.100 C 244.177 134.824,244.000 136.229,244.000 106.135 C 244.000 76.006,244.200 77.589,240.105 75.300 C 238.832 74.588,211.001 74.657,209.703 75.375 M259.703 75.375 C 255.857 77.502,256.000 76.312,256.000 106.200 C 256.000 136.102,255.873 135.090,259.874 137.150 C 261.177 137.821,288.897 137.775,290.105 137.100 C 294.177 134.824,294.000 136.229,294.000 106.135 C 294.000 76.006,294.200 77.589,290.105 75.300 C 288.832 74.588,261.001 74.657,259.703 75.375 M139.481 75.675 C 141.049 76.342,142.800 78.017,142.800 78.851 C 142.800 79.237,142.980 79.664,143.200 79.800 C 143.815 80.180,143.742 131.630,143.124 133.081 C 141.437 137.042,140.739 137.200,124.947 137.200 C 104.367 137.200,106.400 140.592,106.400 106.253 C 106.400 76.622,106.282 77.540,110.336 75.738 C 111.846 75.067,137.918 75.011,139.481 75.675 M189.481 75.675 C 191.049 76.342,192.800 78.017,192.800 78.851 C 192.800 79.237,192.980 79.664,193.200 79.800 C 193.815 80.180,193.742 131.630,193.124 133.081 C 191.437 137.042,190.739 137.200,174.947 137.200 C 154.367 137.200,156.400 140.592,156.400 106.253 C 156.400 76.622,156.282 77.540,160.336 75.738 C 161.846 75.067,187.918 75.011,189.481 75.675 M239.481 75.675 C 241.049 76.342,242.800 78.017,242.800 78.851 C 242.800 79.237,242.980 79.664,243.200 79.800 C 243.815 80.180,243.742 131.630,243.124 133.081 C 241.437 137.042,240.739 137.200,224.947 137.200 C 204.367 137.200,206.400 140.592,206.400 106.253 C 206.400 76.622,206.282 77.540,210.336 75.738 C 211.846 75.067,237.918 75.011,239.481 75.675 M289.481 75.675 C 291.049 76.342,292.800 78.017,292.800 78.851 C 292.800 79.237,292.980 79.664,293.200 79.800 C 293.815 80.180,293.742 131.630,293.124 133.081 C 291.437 137.042,290.739 137.200,274.947 137.200 C 254.367 137.200,256.400 140.592,256.400 106.253 C 256.400 76.622,256.282 77.540,260.336 75.738 C 261.846 75.067,287.918 75.011,289.481 75.675 M108.897 150.925 C 105.901 152.937,106.000 151.897,106.000 181.391 L 106.000 207.730 106.994 209.426 C 108.917 212.707,109.412 212.800,125.000 212.800 C 140.588 212.800,141.083 212.707,143.006 209.426 L 144.000 207.730 144.000 181.460 C 144.000 151.935,144.095 152.901,141.002 150.900 C 138.857 149.512,110.969 149.533,108.897 150.925 M158.897 150.925 C 155.901 152.937,156.000 151.897,156.000 181.391 L 156.000 207.730 156.994 209.426 C 158.917 212.707,159.412 212.800,175.000 212.800 C 190.588 212.800,191.083 212.707,193.006 209.426 L 194.000 207.730 194.000 181.460 C 194.000 151.935,194.095 152.901,191.002 150.900 C 188.857 149.512,160.969 149.533,158.897 150.925 M208.897 150.925 C 205.901 152.937,206.000 151.897,206.000 181.391 L 206.000 207.730 206.994 209.426 C 208.917 212.707,209.412 212.800,225.000 212.800 C 240.588 212.800,241.083 212.707,243.006 209.426 L 244.000 207.730 244.000 181.460 C 244.000 151.935,244.095 152.901,241.002 150.900 C 238.857 149.512,210.969 149.533,208.897 150.925 M258.897 150.925 C 255.901 152.937,256.000 151.897,256.000 181.391 L 256.000 207.730 256.994 209.426 C 258.917 212.707,259.412 212.800,275.000 212.800 C 290.588 212.800,291.083 212.707,293.006 209.426 L 294.000 207.730 294.000 181.460 C 294.000 151.935,294.095 152.901,291.002 150.900 C 288.857 149.512,260.969 149.533,258.897 150.925 M140.888 151.400 C 143.665 153.443,143.600 152.729,143.600 181.385 L 143.600 207.179 142.640 208.888 C 140.739 212.272,140.205 212.377,125.000 212.377 C 109.795 212.377,109.261 212.272,107.360 208.888 L 106.400 207.179 106.400 181.438 C 106.400 152.067,106.356 152.424,110.200 150.778 C 112.078 149.974,139.711 150.534,140.888 151.400 M190.888 151.400 C 193.665 153.443,193.600 152.729,193.600 181.385 L 193.600 207.179 192.640 208.888 C 190.739 212.272,190.205 212.377,175.000 212.377 C 159.795 212.377,159.261 212.272,157.360 208.888 L 156.400 207.179 156.400 181.438 C 156.400 152.067,156.356 152.424,160.200 150.778 C 162.078 149.974,189.711 150.534,190.888 151.400 M240.888 151.400 C 243.665 153.443,243.600 152.729,243.600 181.385 L 243.600 207.179 242.640 208.888 C 240.739 212.272,240.205 212.377,225.000 212.377 C 209.795 212.377,209.261 212.272,207.360 208.888 L 206.400 207.179 206.400 181.438 C 206.400 152.067,206.356 152.424,210.200 150.778 C 212.078 149.974,239.711 150.534,240.888 151.400 M290.888 151.400 C 293.665 153.443,293.600 152.729,293.600 181.385 L 293.600 207.179 292.640 208.888 C 290.739 212.272,290.205 212.377,275.000 212.377 C 259.795 212.377,259.261 212.272,257.360 208.888 L 256.400 207.179 256.400 181.438 C 256.400 152.067,256.356 152.424,260.200 150.778 C 262.078 149.974,289.711 150.534,290.888 151.400 M109.936 225.338 C 105.877 227.141,106.000 226.179,106.000 256.200 C 106.000 286.102,105.873 285.090,109.874 287.150 C 111.177 287.821,138.897 287.775,140.105 287.100 C 144.177 284.824,144.000 286.230,144.000 256.131 C 144.000 226.166,144.115 227.061,140.059 225.367 C 138.265 224.617,111.615 224.591,109.936 225.338 M159.936 225.338 C 155.877 227.141,156.000 226.179,156.000 256.200 C 156.000 286.102,155.873 285.090,159.874 287.150 C 161.177 287.821,188.897 287.775,190.105 287.100 C 194.177 284.824,194.000 286.230,194.000 256.131 C 194.000 226.166,194.115 227.061,190.059 225.367 C 188.265 224.617,161.615 224.591,159.936 225.338 M209.936 225.338 C 205.877 227.141,206.000 226.179,206.000 256.200 C 206.000 286.102,205.873 285.090,209.874 287.150 C 211.177 287.821,238.897 287.775,240.105 287.100 C 244.177 284.824,244.000 286.230,244.000 256.131 C 244.000 226.166,244.115 227.061,240.059 225.367 C 238.265 224.617,211.615 224.591,209.936 225.338 M259.936 225.338 C 255.877 227.141,256.000 226.179,256.000 256.200 C 256.000 286.102,255.873 285.090,259.874 287.150 C 261.177 287.821,288.897 287.775,290.105 287.100 C 294.177 284.824,294.000 286.230,294.000 256.131 C 294.000 226.166,294.115 227.061,290.059 225.367 C 288.265 224.617,261.615 224.591,259.936 225.338 M139.481 225.675 C 141.049 226.342,142.800 228.017,142.800 228.851 C 142.800 229.237,142.980 229.664,143.200 229.800 C 143.815 230.180,143.742 281.630,143.124 283.081 C 141.437 287.042,140.739 287.200,124.947 287.200 C 104.367 287.200,106.400 290.592,106.400 256.253 C 106.400 226.622,106.282 227.540,110.336 225.738 C 111.846 225.067,137.918 225.011,139.481 225.675 M189.481 225.675 C 191.049 226.342,192.800 228.017,192.800 228.851 C 192.800 229.237,192.980 229.664,193.200 229.800 C 193.815 230.180,193.742 281.630,193.124 283.081 C 191.437 287.042,190.739 287.200,174.947 287.200 C 154.367 287.200,156.400 290.592,156.400 256.253 C 156.400 226.622,156.282 227.540,160.336 225.738 C 161.846 225.067,187.918 225.011,189.481 225.675 M239.481 225.675 C 241.049 226.342,242.800 228.017,242.800 228.851 C 242.800 229.237,242.980 229.664,243.200 229.800 C 243.815 230.180,243.742 281.630,243.124 283.081 C 241.437 287.042,240.739 287.200,224.947 287.200 C 204.367 287.200,206.400 290.592,206.400 256.253 C 206.400 226.622,206.282 227.540,210.336 225.738 C 211.846 225.067,237.918 225.011,239.481 225.675 M289.481 225.675 C 291.049 226.342,292.800 228.017,292.800 228.851 C 292.800 229.237,292.980 229.664,293.200 229.800 C 293.815 230.180,293.742 281.630,293.124 283.081 C 291.437 287.042,290.739 287.200,274.947 287.200 C 254.367 287.200,256.400 290.592,256.400 256.253 C 256.400 226.622,256.282 227.540,260.336 225.738 C 261.846 225.067,287.918 225.011,289.481 225.675 M37.718 309.498 C 39.433 309.573,42.133 309.572,43.718 309.497 C 45.303 309.421,43.900 309.359,40.600 309.360 C 37.300 309.361,36.003 309.422,37.718 309.498 M356.518 309.498 C 358.233 309.573,360.933 309.572,362.518 309.497 C 364.103 309.421,362.700 309.359,359.400 309.360 C 356.100 309.361,354.803 309.422,356.518 309.498 " stroke="none" fill="#63360b" fill-rule="evenodd"></path><path id="path5" d="M122.118 125.098 C 123.833 125.173,126.533 125.172,128.118 125.097 C 129.703 125.021,128.300 124.959,125.000 124.960 C 121.700 124.961,120.403 125.022,122.118 125.098 M172.118 125.098 C 173.833 125.173,176.533 125.172,178.118 125.097 C 179.703 125.021,178.300 124.959,175.000 124.960 C 171.700 124.961,170.403 125.022,172.118 125.098 M222.118 125.098 C 223.833 125.173,226.533 125.172,228.118 125.097 C 229.703 125.021,228.300 124.959,225.000 124.960 C 221.700 124.961,220.403 125.022,222.118 125.098 M272.118 125.098 C 273.833 125.173,276.533 125.172,278.118 125.097 C 279.703 125.021,278.300 124.959,275.000 124.960 C 271.700 124.961,270.403 125.022,272.118 125.098 M122.118 175.098 C 123.833 175.173,126.533 175.172,128.118 175.097 C 129.703 175.021,128.300 174.959,125.000 174.960 C 121.700 174.961,120.403 175.022,122.118 175.098 M172.118 175.098 C 173.833 175.173,176.533 175.172,178.118 175.097 C 179.703 175.021,178.300 174.959,175.000 174.960 C 171.700 174.961,170.403 175.022,172.118 175.098 M222.118 175.098 C 223.833 175.173,226.533 175.172,228.118 175.097 C 229.703 175.021,228.300 174.959,225.000 174.960 C 221.700 174.961,220.403 175.022,222.118 175.098 M272.118 175.098 C 273.833 175.173,276.533 175.172,278.118 175.097 C 279.703 175.021,278.300 174.959,275.000 174.960 C 271.700 174.961,270.403 175.022,272.118 175.098 M122.118 275.098 C 123.833 275.173,126.533 275.172,128.118 275.097 C 129.703 275.021,128.300 274.959,125.000 274.960 C 121.700 274.961,120.403 275.022,122.118 275.098 M172.118 275.098 C 173.833 275.173,176.533 275.172,178.118 275.097 C 179.703 275.021,178.300 274.959,175.000 274.960 C 171.700 274.961,170.403 275.022,172.118 275.098 M222.118 275.098 C 223.833 275.173,226.533 275.172,228.118 275.097 C 229.703 275.021,228.300 274.959,225.000 274.960 C 221.700 274.961,220.403 275.022,222.118 275.098 M272.118 275.098 C 273.833 275.173,276.533 275.172,278.118 275.097 C 279.703 275.021,278.300 274.959,275.000 274.960 C 271.700 274.961,270.403 275.022,272.118 275.098 M29.106 284.552 C 28.725 284.842,28.530 285.196,28.673 285.340 C 28.816 285.483,28.710 285.600,28.438 285.600 C 27.522 285.600,25.600 288.485,25.600 289.861 C 25.600 290.158,25.441 290.400,25.247 290.400 C 24.841 290.400,24.465 291.995,24.702 292.707 C 24.790 292.970,26.089 293.550,27.590 293.997 L 30.318 294.810 30.565 298.305 C 31.242 307.892,31.265 309.145,30.812 311.800 C 30.305 314.766,29.729 316.951,29.151 318.095 C 28.958 318.477,28.800 318.977,28.800 319.206 C 28.800 319.435,28.144 321.006,27.341 322.697 C 23.016 331.811,24.574 339.665,31.736 344.853 C 34.553 346.893,34.381 347.960,34.496 327.700 L 34.600 309.400 40.600 309.400 L 46.600 309.400 46.704 327.700 C 46.821 348.298,46.611 347.154,49.823 344.700 C 56.808 339.362,58.011 332.150,53.625 321.900 C 50.696 315.054,49.538 308.528,50.330 303.325 C 51.546 295.335,50.046 291.056,45.161 288.580 C 42.893 287.431,38.495 287.231,36.800 288.200 C 35.189 289.121,34.695 288.889,32.904 286.378 C 31.174 283.953,30.391 283.576,29.106 284.552 M354.800 288.580 C 350.877 290.633,349.004 294.166,349.359 298.839 C 349.492 300.578,349.710 303.470,349.845 305.266 C 350.118 308.901,349.552 313.269,348.324 317.000 C 347.539 319.386,347.287 320.011,345.605 323.759 C 341.782 332.279,343.902 340.473,351.189 345.340 C 353.256 346.720,353.184 347.315,353.296 327.700 L 353.400 309.400 359.400 309.400 L 365.400 309.400 365.504 327.700 C 365.619 347.944,365.451 346.891,368.240 344.869 C 375.251 339.784,376.959 331.714,372.847 323.098 C 371.141 319.524,370.079 316.113,369.331 311.809 C 368.722 308.298,368.727 307.724,369.459 299.137 C 370.172 290.772,361.938 284.843,354.800 288.580 M122.118 325.098 C 123.833 325.173,126.533 325.172,128.118 325.097 C 129.703 325.021,128.300 324.959,125.000 324.960 C 121.700 324.961,120.403 325.022,122.118 325.098 M272.118 325.098 C 273.833 325.173,276.533 325.172,278.118 325.097 C 279.703 325.021,278.300 324.959,275.000 324.960 C 271.700 324.961,270.403 325.022,272.118 325.098 M118.500 362.700 L 156.000 362.804 156.000 368.800 L 156.000 374.796 118.600 374.901 L 81.200 375.006 118.700 375.003 L 156.200 375.000 156.310 368.700 L 156.420 362.400 118.710 362.498 L 81.000 362.596 118.500 362.700 M168.577 362.916 C 168.467 363.202,168.427 366.039,168.489 369.218 L 168.600 375.000 200.000 375.000 L 231.400 375.000 231.400 368.800 L 231.400 362.600 200.088 362.498 C 174.667 362.414,168.739 362.493,168.577 362.916 M243.690 368.700 L 243.800 375.000 281.300 375.102 L 318.800 375.204 318.800 368.802 L 318.800 362.400 281.190 362.400 L 243.580 362.400 243.690 368.700 M231.200 368.800 L 231.200 374.800 200.000 374.800 L 168.800 374.800 168.800 368.800 L 168.800 362.800 200.000 362.800 L 231.200 362.800 231.200 368.800 M318.400 368.800 L 318.400 374.800 281.200 374.800 L 244.000 374.800 244.000 368.800 L 244.000 362.800 281.200 362.800 L 318.400 362.800 318.400 368.800 " stroke="none" fill="#54743c" fill-rule="evenodd"></path></g></svg>